# xmcd
#
# Track frame offsets:
#	150
#	7638
#	8598
#	21895
#	41155
#	61669
#	82740
#	97457
#	112531
#	127172
#	141619
#	162461
#	176120
#	196523
#	208260
#	225193
#	247866
#
# Disc length: 3615 seconds
#
# Revision: 8
# Processed by: cddbd v1.5.2PL0 Copyright (c) Steve Scherf et al.
# Submitted via: Jack! The Knife 20 Magnifico
#
DISCID=d00e1d11
DTITLE=Queensrÿche - Operation: Mindcrime II
DYEAR=2006
DGENRE=Heavy Metal
TTITLE0=Freiheit Overture
TTITLE1=Convict
TTITLE2=I'm American
TTITLE3=One Foot In Hell
TTITLE4=Hostage
TTITLE5=The Hands
TTITLE6=Speed Of Light
TTITLE7=Signs Say Go
TTITLE8=Re-Arrange You
TTITLE9=The Chase
TTITLE10=Murderer?
TTITLE11=Circles
TTITLE12=If I Could Change It All
TTITLE13=An Intentional Confrontation
TTITLE14=A Junkie's Blues
TTITLE15=Fear City Slide
TTITLE16=All The Promises
EXTD=Jason Slater
EXTT0=Jackson, Slater, Stone
EXTT1=Geoff Tate
EXTT2=Slater, Stone, Tate
EXTT3=Slater, Stone, Tate
EXTT4=Jackson, Tate, Wilton
EXTT5=Slater, Tate, Wilton
EXTT6=Slater, Stone, Tate
EXTT7=Slater, Stone, Tate
EXTT8=Slater, Stone, Tate
EXTT9=Slater, Stone, Tate
EXTT10=Slater, Tate, Wilton
EXTT11=Jackson, Slater, Tate
EXTT12=Slater, Stone, Tate
EXTT13=Slater, Stone, Tate
EXTT14=Slater, Stone, Tate
EXTT15=Slater, Stone, Tate
EXTT16=Slater, Stone, Tate
PLAYORDER=
